<svg width="375" height="262" viewBox="0 0 375 262" fill="none" xmlns="http://www.w3.org/2000/svg">
<g clip-path="url(#clip0_38_2207)">
<rect width="375" height="262" fill="#4F46E5"/>
<path d="M39 252.5C39 268.792 25.7924 282 9.5 282C-6.7924 282 -20 268.792 -20 252.5C-20 236.208 -6.7924 223 9.5 223C25.7924 223 39 236.208 39 252.5Z" stroke="white" stroke-width="30"/>
<path d="M275 205.989V215.226L320.426 189H304.426L275 205.989Z" fill="white" fill-opacity="0.15"/>
<path d="M347.727 189L275 230.989V240.226L363.727 189H347.727Z" fill="white" fill-opacity="0.15"/>
<path d="M391.028 189L275 255.989V265.226L407.028 189H391.028Z" fill="white" fill-opacity="0.15"/>
<path d="M434.329 189L275 280.989V290.226L450.329 189H434.329Z" fill="white" fill-opacity="0.15"/>
<path d="M475 190.519L275 305.989V315.226L475 199.756V190.519Z" fill="white" fill-opacity="0.15"/>
<path d="M475 215.519L275 330.989V340.226L475 224.756V215.519Z" fill="white" fill-opacity="0.15"/>
<path d="M475 240.519L275 355.989V365.226L475 249.756V240.519Z" fill="white" fill-opacity="0.15"/>
<path d="M475 265.519L275 380.989V390.226L475 274.756V265.519Z" fill="white" fill-opacity="0.15"/>
<path d="M475 290.519L275 405.989V415.226L475 299.756V290.519Z" fill="white" fill-opacity="0.15"/>
<path d="M475 315.519L275 430.989V440.226L475 324.756V315.519Z" fill="white" fill-opacity="0.15"/>
<path d="M475 340.519L275 455.989V465.226L475 349.756V340.519Z" fill="white" fill-opacity="0.15"/>
<path d="M475 365.519L275 480.989V489H277.124L475 374.756V365.519Z" fill="white" fill-opacity="0.15"/>
<path d="M475 390.519L304.426 489H320.426L475 399.756V390.519Z" fill="white" fill-opacity="0.15"/>
<path d="M475 415.519L347.727 489H363.727L475 424.756V415.519Z" fill="white" fill-opacity="0.15"/>
<path d="M475 440.519L391.028 489H407.028L475 449.756V440.519Z" fill="white" fill-opacity="0.15"/>
<path d="M475 465.519L434.329 489H450.329L475 474.756V465.519Z" fill="white" fill-opacity="0.15"/>
<path opacity="0.1" fill-rule="evenodd" clip-rule="evenodd" d="M-192.592 -790.918L1152.42 -124.634L569.591 1051.92L-775.424 385.634L-192.592 -790.918ZM-191.531 -787.776L-27.607 -706.573L-108.787 -542.696L-272.711 -623.899L-191.531 -787.776ZM-23.4038 -704.491L140.52 -623.287L59.3397 -459.41L-104.584 -540.614L-23.4038 -704.491ZM308.647 -540.002L144.723 -621.205L63.5429 -457.328L227.467 -376.125L308.647 -540.002ZM312.85 -537.92L476.774 -456.716L395.594 -292.839L231.67 -374.043L312.85 -537.92ZM644.901 -373.431L480.977 -454.634L399.797 -290.757L563.72 -209.554L644.901 -373.431ZM649.104 -371.349L813.028 -290.145L731.847 -126.268L567.924 -207.472L649.104 -371.349ZM981.155 -206.86L817.231 -288.063L736.051 -124.186L899.974 -42.9826L981.155 -206.86ZM985.358 -204.777L1149.28 -123.574L1068.1 40.3029L904.177 -40.9005L985.358 -204.777ZM-110.869 -538.494L-274.793 -619.697L-355.973 -455.82L-192.049 -374.617L-110.869 -538.494ZM-106.666 -536.412L57.2581 -455.208L-23.9221 -291.332L-187.846 -372.535L-106.666 -536.412ZM225.385 -371.923L61.4613 -453.126L-19.7189 -289.249L144.205 -208.046L225.385 -371.923ZM229.588 -369.841L393.512 -288.637L312.332 -124.76L148.408 -205.964L229.588 -369.841ZM561.639 -205.352L397.715 -286.555L316.535 -122.678L480.459 -41.4749L561.639 -205.352ZM565.842 -203.27L729.766 -122.066L648.586 41.8107L484.662 -39.3927L565.842 -203.27ZM897.893 -38.7807L733.969 -119.984L652.789 43.8928L816.713 125.096L897.893 -38.7807ZM902.096 -36.6986L1066.02 44.5049L984.839 208.382L820.916 127.178L902.096 -36.6986ZM-194.131 -370.415L-358.054 -451.619L-439.234 -287.742L-275.311 -206.538L-194.131 -370.415ZM-189.927 -368.333L-26.0036 -287.13L-107.184 -123.253L-271.108 -204.456L-189.927 -368.333ZM142.123 -203.844L-21.8004 -285.047L-102.981 -121.17L60.9431 -39.9671L142.123 -203.844ZM146.326 -201.762L310.25 -120.558L229.07 43.3185L65.1463 -37.8849L146.326 -201.762ZM478.377 -37.2729L314.453 -118.476L233.273 45.4006L397.197 126.604L478.377 -37.2729ZM482.58 -35.1907L646.504 46.0127L565.324 209.89L401.4 128.686L482.58 -35.1907ZM814.631 129.298L650.707 48.0948L569.527 211.972L733.451 293.175L814.631 129.298ZM818.834 131.38L982.758 212.584L901.578 376.461L737.654 295.257L818.834 131.38ZM-277.392 -202.336L-441.316 -283.54L-522.496 -119.663L-358.573 -38.4592L-277.392 -202.336ZM-273.189 -200.254L-109.265 -119.051L-190.446 44.8263L-354.369 -36.3771L-273.189 -200.254ZM58.8615 -35.7651L-105.062 -116.968L-186.242 46.9085L-22.3187 128.112L58.8615 -35.7651ZM63.0647 -33.6829L226.988 47.5205L145.808 211.397L-18.1155 130.194L63.0647 -33.6829ZM395.115 130.806L231.192 49.6026L150.011 213.48L313.935 294.683L395.115 130.806ZM399.319 132.888L563.242 214.092L482.062 377.969L318.138 296.765L399.319 132.888ZM731.369 297.377L567.445 216.174L486.265 380.051L650.189 461.254L731.369 297.377ZM735.572 299.459L899.496 380.663L818.316 544.54L654.392 463.336L735.572 299.459ZM-360.654 -34.2573L-524.578 -115.461L-605.758 48.4162L-441.834 129.62L-360.654 -34.2573ZM-356.451 -32.1751L-192.527 49.0283L-273.707 212.905L-437.631 131.702L-356.451 -32.1751ZM-24.4002 132.314L-188.324 51.1104L-269.504 214.987L-105.58 296.191L-24.4002 132.314ZM-20.1971 134.396L143.727 215.599L62.5465 379.476L-101.377 298.273L-20.1971 134.396ZM311.854 298.885L147.93 217.682L66.7496 381.558L230.673 462.762L311.854 298.885ZM316.057 300.967L479.981 382.171L398.8 546.047L234.877 464.844L316.057 300.967ZM648.107 465.456L484.184 384.253L403.003 548.13L566.927 629.333L648.107 465.456ZM652.311 467.538L816.234 548.742L735.054 712.619L571.13 631.415L652.311 467.538ZM-443.916 133.822L-607.84 52.6182L-689.02 216.495L-525.096 297.699L-443.916 133.822ZM-439.713 135.904L-275.789 217.107L-356.969 380.984L-520.893 299.781L-439.713 135.904ZM-107.662 300.393L-271.586 219.189L-352.766 383.066L-188.842 464.27L-107.662 300.393ZM-103.459 302.475L60.4649 383.678L-20.7153 547.555L-184.639 466.352L-103.459 302.475ZM228.592 466.964L64.6681 385.76L-16.5122 549.637L147.412 630.841L228.592 466.964ZM232.795 469.046L396.719 550.249L315.539 714.126L151.615 632.923L232.795 469.046ZM564.846 633.535L400.922 552.332L319.742 716.208L483.665 797.412L564.846 633.535ZM569.049 635.617L732.973 716.821L651.792 880.697L487.869 799.494L569.049 635.617ZM-527.178 301.901L-691.101 220.697L-772.282 384.574L-608.358 465.777L-527.178 301.901ZM-522.974 303.983L-359.051 385.186L-440.231 549.063L-604.155 467.86L-522.974 303.983ZM-190.924 468.472L-354.848 387.268L-436.028 551.145L-272.104 632.349L-190.924 468.472ZM-186.721 470.554L-22.7968 551.757L-103.977 715.634L-267.901 634.431L-186.721 470.554ZM145.33 635.043L-18.5937 553.839L-99.7739 717.716L64.1498 798.92L145.33 635.043ZM149.533 637.125L313.457 718.328L232.277 882.205L68.353 801.002L149.533 637.125ZM481.584 801.614L317.66 720.41L236.48 884.287L400.404 965.491L481.584 801.614ZM485.787 803.696L649.711 884.899L568.531 1048.78L404.607 967.573L485.787 803.696Z" fill="white" fill-opacity="0.45"/>
</g>
<defs>
<clipPath id="clip0_38_2207">
<rect width="375" height="262" fill="white"/>
</clipPath>
</defs>
</svg>
