<svg width="1440" height="350" viewBox="0 0 1440 350" fill="none" xmlns="http://www.w3.org/2000/svg">
<g clip-path="url(#clip0_62_2102)">
<rect width="1440" height="350" fill="#4F46E5"/>
<path d="M1150 41.9889V51.2265L1195.43 25H1179.43L1150 41.9889Z" fill="white" fill-opacity="0.15"/>
<path d="M1222.73 25L1150 66.9889V76.2265L1238.73 25H1222.73Z" fill="white" fill-opacity="0.15"/>
<path d="M1266.03 25L1150 91.9889V101.226L1282.03 25H1266.03Z" fill="white" fill-opacity="0.15"/>
<path d="M1309.33 25L1150 116.989V126.226L1325.33 25H1309.33Z" fill="white" fill-opacity="0.15"/>
<path d="M1350 26.5188L1150 141.989V151.226L1350 35.7564V26.5188Z" fill="white" fill-opacity="0.15"/>
<path d="M1350 51.5188L1150 166.989V176.226L1350 60.7564V51.5188Z" fill="white" fill-opacity="0.15"/>
<path d="M1350 76.5188L1150 191.989V201.226L1350 85.7564V76.5188Z" fill="white" fill-opacity="0.15"/>
<path d="M1350 101.519L1150 216.989V226.226L1350 110.756V101.519Z" fill="white" fill-opacity="0.15"/>
<path d="M1350 126.519L1150 241.989V251.226L1350 135.756V126.519Z" fill="white" fill-opacity="0.15"/>
<path d="M1350 151.519L1150 266.989V276.226L1350 160.756V151.519Z" fill="white" fill-opacity="0.15"/>
<path d="M1350 176.519L1150 291.989V301.226L1350 185.756V176.519Z" fill="white" fill-opacity="0.15"/>
<path d="M1350 201.519L1150 316.989V325H1152.12L1350 210.756V201.519Z" fill="white" fill-opacity="0.15"/>
<path d="M1350 226.519L1179.43 325H1195.43L1350 235.756V226.519Z" fill="white" fill-opacity="0.15"/>
<path d="M1350 251.519L1222.73 325H1238.73L1350 260.756V251.519Z" fill="white" fill-opacity="0.15"/>
<path d="M1350 276.519L1266.03 325H1282.03L1350 285.756V276.519Z" fill="white" fill-opacity="0.15"/>
<path d="M1350 301.519L1309.33 325H1325.33L1350 310.756V301.519Z" fill="white" fill-opacity="0.15"/>
<path opacity="0.1" fill-rule="evenodd" clip-rule="evenodd" d="M339.408 -746.918L1684.42 -80.634L1101.59 1095.92L-243.424 429.634L339.408 -746.918ZM340.469 -743.776L504.393 -662.573L423.213 -498.696L259.289 -579.899L340.469 -743.776ZM508.596 -660.491L672.52 -579.287L591.34 -415.41L427.416 -496.614L508.596 -660.491ZM840.647 -496.002L676.723 -577.205L595.543 -413.328L759.467 -332.125L840.647 -496.002ZM844.85 -493.92L1008.77 -412.716L927.594 -248.839L763.67 -330.043L844.85 -493.92ZM1176.9 -329.431L1012.98 -410.634L931.797 -246.757L1095.72 -165.554L1176.9 -329.431ZM1181.1 -327.349L1345.03 -246.145L1263.85 -82.2682L1099.92 -163.472L1181.1 -327.349ZM1513.15 -162.86L1349.23 -244.063L1268.05 -80.1861L1431.97 1.01736L1513.15 -162.86ZM1517.36 -160.777L1681.28 -79.574L1600.1 84.3029L1436.18 3.09946L1517.36 -160.777ZM421.131 -494.494L257.207 -575.697L176.027 -411.82L339.951 -330.617L421.131 -494.494ZM425.334 -492.412L589.258 -411.208L508.078 -247.332L344.154 -328.535L425.334 -492.412ZM757.385 -327.923L593.461 -409.126L512.281 -245.249L676.205 -164.046L757.385 -327.923ZM761.588 -325.841L925.512 -244.637L844.332 -80.7604L680.408 -161.964L761.588 -325.841ZM1093.64 -161.352L929.715 -242.555L848.535 -78.6783L1012.46 2.52513L1093.64 -161.352ZM1097.84 -159.27L1261.77 -78.0662L1180.59 85.8107L1016.66 4.60727L1097.84 -159.27ZM1429.89 5.21933L1265.97 -75.9841L1184.79 87.8928L1348.71 169.096L1429.89 5.21933ZM1434.1 7.30143L1598.02 88.5049L1516.84 252.382L1352.92 171.178L1434.1 7.30143ZM337.869 -326.415L173.946 -407.619L92.7655 -243.742L256.689 -162.538L337.869 -326.415ZM342.073 -324.333L505.996 -243.13L424.816 -79.2526L260.892 -160.456L342.073 -324.333ZM674.123 -159.844L510.2 -241.047L429.019 -77.1705L592.943 4.03293L674.123 -159.844ZM678.326 -157.762L842.25 -76.5584L761.07 87.3185L597.146 6.11506L678.326 -157.762ZM1010.38 6.72712L846.453 -74.4763L765.273 89.4006L929.197 170.604L1010.38 6.72712ZM1014.58 8.80925L1178.5 90.0127L1097.32 253.89L933.4 172.686L1014.58 8.80925ZM1346.63 173.298L1182.71 92.0948L1101.53 255.972L1265.45 337.175L1346.63 173.298ZM1350.83 175.38L1514.76 256.584L1433.58 420.461L1269.65 339.257L1350.83 175.38ZM254.608 -158.336L90.6839 -239.54L9.50371 -75.6627L173.427 5.54076L254.608 -158.336ZM258.811 -156.254L422.735 -75.0506L341.554 88.8263L177.631 7.6229L258.811 -156.254ZM590.862 8.23494L426.938 -72.9685L345.758 90.9085L509.681 172.112L590.862 8.23494ZM595.065 10.3171L758.988 91.5205L677.808 255.397L513.884 174.194L595.065 10.3171ZM927.115 174.806L763.192 93.6026L682.011 257.48L845.935 338.683L927.115 174.806ZM931.319 176.888L1095.24 258.092L1014.06 421.969L850.138 340.765L931.319 176.888ZM1263.37 341.377L1099.45 260.174L1018.27 424.051L1182.19 505.254L1263.37 341.377ZM1267.57 343.459L1431.5 424.663L1350.32 588.54L1186.39 507.336L1267.57 343.459ZM171.346 9.74272L7.42218 -71.4607L-73.758 92.4162L90.1657 173.62L171.346 9.74272ZM175.549 11.8249L339.473 93.0283L258.293 256.905L94.3689 175.702L175.549 11.8249ZM507.6 176.314L343.676 95.1104L262.496 258.987L426.42 340.191L507.6 176.314ZM511.803 178.396L675.727 259.599L594.546 423.476L430.623 342.273L511.803 178.396ZM843.854 342.885L679.93 261.682L598.75 425.558L762.673 506.762L843.854 342.885ZM848.057 344.967L1011.98 426.171L930.8 590.047L766.877 508.844L848.057 344.967ZM1180.11 509.456L1016.18 428.253L935.003 592.13L1098.93 673.333L1180.11 509.456ZM1184.31 511.538L1348.23 592.742L1267.05 756.619L1103.13 675.415L1184.31 511.538ZM88.0842 177.822L-75.8396 96.6182L-157.02 260.495L6.90391 341.699L88.0842 177.822ZM92.2873 179.904L256.211 261.107L175.031 424.984L11.1071 343.781L92.2873 179.904ZM424.338 344.393L260.414 263.189L179.234 427.066L343.158 508.27L424.338 344.393ZM428.541 346.475L592.465 427.678L511.285 591.555L347.361 510.352L428.541 346.475ZM760.592 510.964L596.668 429.76L515.488 593.637L679.412 674.841L760.592 510.964ZM764.795 513.046L928.719 594.249L847.539 758.126L683.615 676.923L764.795 513.046ZM1096.85 677.535L932.922 596.332L851.742 760.208L1015.67 841.412L1096.85 677.535ZM1101.05 679.617L1264.97 760.821L1183.79 924.697L1019.87 843.494L1101.05 679.617ZM4.8224 345.901L-159.101 264.697L-240.282 428.574L-76.3579 509.777L4.8224 345.901ZM9.02557 347.983L172.949 429.186L91.7691 593.063L-72.1547 511.86L9.02557 347.983ZM341.076 512.472L177.152 431.268L95.9722 595.145L259.896 676.349L341.076 512.472ZM345.279 514.554L509.203 595.757L428.023 759.634L264.099 678.431L345.279 514.554ZM677.33 679.043L513.406 597.839L432.226 761.716L596.15 842.92L677.33 679.043ZM681.533 681.125L845.457 762.328L764.277 926.205L600.353 845.002L681.533 681.125ZM1013.58 845.614L849.66 764.41L768.48 928.287L932.404 1009.49L1013.58 845.614ZM1017.79 847.696L1181.71 928.899L1100.53 1092.78L936.607 1011.57L1017.79 847.696Z" fill="white" fill-opacity="0.45"/>
<path d="M130 284.5C130 363.201 66.2006 427 -12.5 427C-91.2006 427 -155 363.201 -155 284.5C-155 205.799 -91.2006 142 -12.5 142C66.2006 142 130 205.799 130 284.5Z" stroke="white" stroke-width="30"/>
<path d="M1310 190L1312.12 197.879L1320 200L1312.12 202.121L1310 210L1307.88 202.121L1300 200L1307.88 197.879L1310 190Z" fill="white"/>
<path d="M1400 215L1404.24 230.757L1420 235L1404.24 239.243L1400 255L1395.76 239.243L1380 235L1395.76 230.757L1400 215Z" fill="white"/>
<path d="M1355 310L1358.18 321.818L1370 325L1358.18 328.182L1355 340L1351.82 328.182L1340 325L1351.82 321.818L1355 310Z" fill="white"/>
</g>
<defs>
<clipPath id="clip0_62_2102">
<rect width="1440" height="350" fill="white"/>
</clipPath>
</defs>
</svg>
