<svg width="1440" height="1024" viewBox="0 0 1440 1024" fill="none" xmlns="http://www.w3.org/2000/svg">
<g clip-path="url(#clip0_22_1702)">
<rect width="1440" height="1024" fill="white"/>
<line x1="30.5" y1="2.18557e-08" x2="30.5" y2="1129" stroke="#121212" stroke-opacity="0.03"/>
<line x1="89.5" y1="2.18557e-08" x2="89.5" y2="1129" stroke="#121212" stroke-opacity="0.03"/>
<line x1="148.5" y1="2.18557e-08" x2="148.5" y2="1129" stroke="#121212" stroke-opacity="0.03"/>
<line x1="207.5" y1="2.18557e-08" x2="207.5" y2="1129" stroke="#121212" stroke-opacity="0.03"/>
<line x1="266.5" y1="2.18557e-08" x2="266.5" y2="1129" stroke="#121212" stroke-opacity="0.03"/>
<line x1="325.5" y1="2.18557e-08" x2="325.5" y2="1129" stroke="#121212" stroke-opacity="0.03"/>
<line x1="384.5" y1="2.18557e-08" x2="384.5" y2="1129" stroke="#121212" stroke-opacity="0.03"/>
<line x1="443.5" y1="2.18557e-08" x2="443.5" y2="1129" stroke="#121212" stroke-opacity="0.03"/>
<line x1="502.5" y1="2.18557e-08" x2="502.5" y2="1129" stroke="#121212" stroke-opacity="0.03"/>
<line x1="561.5" y1="2.18557e-08" x2="561.5" y2="1129" stroke="#121212" stroke-opacity="0.03"/>
<line x1="620.5" y1="2.18557e-08" x2="620.5" y2="1129" stroke="#121212" stroke-opacity="0.03"/>
<line x1="679.5" y1="2.18557e-08" x2="679.5" y2="1129" stroke="#121212" stroke-opacity="0.03"/>
<line x1="738.5" y1="2.18557e-08" x2="738.5" y2="1129" stroke="#121212" stroke-opacity="0.03"/>
<line x1="797.5" y1="2.18557e-08" x2="797.5" y2="1129" stroke="#121212" stroke-opacity="0.03"/>
<line x1="856.5" y1="2.18557e-08" x2="856.5" y2="1129" stroke="#121212" stroke-opacity="0.03"/>
<line x1="915.5" y1="2.18557e-08" x2="915.5" y2="1129" stroke="#121212" stroke-opacity="0.03"/>
<line x1="974.5" y1="2.18557e-08" x2="974.5" y2="1129" stroke="#121212" stroke-opacity="0.03"/>
<line x1="1033.5" y1="2.18557e-08" x2="1033.5" y2="1129" stroke="#121212" stroke-opacity="0.03"/>
<line x1="1092.5" y1="2.18557e-08" x2="1092.5" y2="1129" stroke="#121212" stroke-opacity="0.03"/>
<line x1="1151.5" y1="2.18557e-08" x2="1151.5" y2="1129" stroke="#121212" stroke-opacity="0.03"/>
<line x1="1210.5" y1="2.18557e-08" x2="1210.5" y2="1129" stroke="#121212" stroke-opacity="0.03"/>
<line x1="1269.5" y1="2.18557e-08" x2="1269.5" y2="1129" stroke="#121212" stroke-opacity="0.03"/>
<line x1="1328.5" y1="2.18557e-08" x2="1328.5" y2="1129" stroke="#121212" stroke-opacity="0.03"/>
<line x1="1387.5" y1="2.18557e-08" x2="1387.5" y2="1129" stroke="#121212" stroke-opacity="0.03"/>
<line x1="2.18557e-08" y1="1006.5" x2="1587" y2="1006.5" stroke="#121212" stroke-opacity="0.03"/>
<line x1="2.18557e-08" y1="947.5" x2="1587" y2="947.5" stroke="#121212" stroke-opacity="0.03"/>
<line x1="2.18557e-08" y1="888.5" x2="1587" y2="888.5" stroke="#121212" stroke-opacity="0.03"/>
<line x1="2.18557e-08" y1="829.5" x2="1587" y2="829.5" stroke="#121212" stroke-opacity="0.03"/>
<line x1="2.18557e-08" y1="770.5" x2="1587" y2="770.5" stroke="#121212" stroke-opacity="0.03"/>
<line x1="2.18557e-08" y1="711.5" x2="1587" y2="711.5" stroke="#121212" stroke-opacity="0.03"/>
<line x1="2.18557e-08" y1="652.5" x2="1587" y2="652.5" stroke="#121212" stroke-opacity="0.03"/>
<line x1="2.18557e-08" y1="593.5" x2="1587" y2="593.5" stroke="#121212" stroke-opacity="0.03"/>
<line x1="2.18557e-08" y1="534.5" x2="1587" y2="534.5" stroke="#121212" stroke-opacity="0.03"/>
<line x1="2.18557e-08" y1="475.5" x2="1587" y2="475.5" stroke="#121212" stroke-opacity="0.03"/>
<line x1="2.18557e-08" y1="416.5" x2="1587" y2="416.5" stroke="#121212" stroke-opacity="0.03"/>
<line x1="2.18557e-08" y1="357.5" x2="1587" y2="357.5" stroke="#121212" stroke-opacity="0.03"/>
<line x1="2.18557e-08" y1="298.5" x2="1587" y2="298.5" stroke="#121212" stroke-opacity="0.03"/>
<line x1="2.18557e-08" y1="239.5" x2="1587" y2="239.5" stroke="#121212" stroke-opacity="0.03"/>
<line x1="2.18557e-08" y1="180.5" x2="1587" y2="180.5" stroke="#121212" stroke-opacity="0.03"/>
<line x1="2.18557e-08" y1="121.5" x2="1587" y2="121.5" stroke="#121212" stroke-opacity="0.03"/>
<line x1="2.18557e-08" y1="62.5" x2="1587" y2="62.5001" stroke="#121212" stroke-opacity="0.03"/>
<line x1="2.18557e-08" y1="3.5" x2="1587" y2="3.50007" stroke="#121212" stroke-opacity="0.03"/>
</g>
<defs>
<clipPath id="clip0_22_1702">
<rect width="1440" height="1024" fill="white"/>
</clipPath>
</defs>
</svg>
